HIERARCHY
ROOT hips
{
  OFFSET 0 9.313263304106702 1.2146308026317778
  CHANNELS 6 Xposition Yposition Zposition Yrotation Xrotation Zrotation
  JOINT spine
  {
    OFFSET -6.402521e-31 0.5173342420023708 0
    CHANNELS 3 Yrotation Xrotation Zrotation
    JOINT chest
    {
      OFFSET 0 1.130544299341115 0
      CHANNELS 3 Yrotation Xrotation Zrotation
      JOINT upperChest
      {
        OFFSET 0 1.0863555061129995 0
        CHANNELS 3 Yrotation Xrotation Zrotation
        JOINT neck
        {
          OFFSET 0 1.3773706506454462 0
          CHANNELS 3 Yrotation Xrotation Zrotation
          JOINT head
          {
            OFFSET 0 0.7374408940073979 0
            CHANNELS 3 Yrotation Xrotation Zrotation
            JOINT leftEye
            {
              OFFSET 0.25066580148932727 0.6408406698778757 0.15963719178883284
              CHANNELS 3 Yrotation Xrotation Zrotation
              End Site
              {
                OFFSET 0.25066580148932727 0.6408406698778757 0.15963719178883284
              }
            }
            JOINT rightEye
            {
              OFFSET -0.25066576739704244 0.6408406384191823 0.15963727561643756
              CHANNELS 3 Yrotation Xrotation Zrotation
              End Site
              {
                OFFSET -0.25066576739704244 0.6408406384191823 0.15963727561643756
              }
            }
          }
        }
        JOINT leftShoulder
        {
          OFFSET 0.3761817444281191 1.0539491987447769 0
          CHANNELS 3 Yrotation Xrotation Zrotation
          JOINT leftUpperArm
          {
            OFFSET 0.8702844380000002 0 0
            CHANNELS 3 Yrotation Xrotation Zrotation
            JOINT leftLowerArm
            {
              OFFSET 2.198527310000323 0 0
              CHANNELS 3 Yrotation Xrotation Zrotation
              JOINT leftHand
              {
                OFFSET 2.146852313968281 0 0
                CHANNELS 3 Yrotation Xrotation Zrotation
                JOINT leftIndexProximal
                {
                  OFFSET 0.6585177834681599 0.07380250427007962 0.18382213159631788
                  CHANNELS 3 Yrotation Xrotation Zrotation
                  JOINT leftIndexIntermediate
                  {
                    OFFSET 0.3323021288626682 -0.009606893929485771 -0.012820872253340998
                    CHANNELS 3 Yrotation Xrotation Zrotation
                    JOINT leftIndexDistal
                    {
                      OFFSET 0.2045908926985518 -0.0071133989147997845 -0.006828784783599051
                      CHANNELS 3 Yrotation Xrotation Zrotation
                      End Site
                      {
                        OFFSET 0.2045908926985518 -0.0071133989147997845 -0.006828784783599051
                      }
                    }
                  }
                }
                JOINT leftLittleProximal
                {
                  OFFSET 0.6110054258835662 0.07380246363125398 -0.29175655876064077
                  CHANNELS 3 Yrotation Xrotation Zrotation
                  JOINT leftLittleIntermediate
                  {
                    OFFSET 0.3144281999999998 -2.5124724523095665e-9 1.8658118799974588e-7
                    CHANNELS 3 Yrotation Xrotation Zrotation
                    JOINT leftLittleDistal
                    {
                      OFFSET 0.18116185580251631 0.002815456192251098 0.0034826415518049436
                      CHANNELS 3 Yrotation Xrotation Zrotation
                      End Site
                      {
                        OFFSET 0.18116185580251631 0.002815456192251098 0.0034826415518049436
                      }
                    }
                  }
                }
                JOINT leftMiddleProximal
                {
                  OFFSET 0.6637478005691111 0.07380246480054087 0.02046981859247815
                  CHANNELS 3 Yrotation Xrotation Zrotation
                  JOINT leftMiddleIntermediate
                  {
                    OFFSET 0.3705733999999994 -2.9611069152224445e-9 9.35054791928458e-8
                    CHANNELS 3 Yrotation Xrotation Zrotation
                    JOINT leftMiddleDistal
                    {
                      OFFSET 0.22861063500000056 -1.82673876025774e-9 -1.6740782024515788e-7
                      CHANNELS 3 Yrotation Xrotation Zrotation
                      End Site
                      {
                        OFFSET 0.22861063500000056 -1.82673876025774e-9 -1.6740782024515788e-7
                      }
                    }
                  }
                }
                JOINT leftRingProximal
                {
                  OFFSET 0.6561845547265777 0.07380246406440083 -0.13588087571513918
                  CHANNELS 3 Yrotation Xrotation Zrotation
                  JOINT leftRingIntermediate
                  {
                    OFFSET 0.3437531000000005 -2.746796123886952e-9 1.4935781944558357e-7
                    CHANNELS 3 Yrotation Xrotation Zrotation
                    JOINT leftRingDistal
                    {
                      OFFSET 0.1983118991198174 -0.002467117924596085 -0.004538141969590015
                      CHANNELS 3 Yrotation Xrotation Zrotation
                      End Site
                      {
                        OFFSET 0.1983118991198174 -0.002467117924596085 -0.004538141969590015
                      }
                    }
                  }
                }
                JOINT leftThumbProximal
                {
                  OFFSET 0.09767004258864787 -0.14930060425447422 -0.07008212897521154
                  CHANNELS 3 Yrotation Xrotation Zrotation
                  JOINT leftThumbIntermediate
                  {
                    OFFSET 0.36682123028154767 -0.015768465060082004 0.28693641268151077
                    CHANNELS 3 Yrotation Xrotation Zrotation
                    JOINT leftThumbDistal
                    {
                      OFFSET 0.21091084272403915 -0.016756648201192714 0.1933767059105508
                      CHANNELS 3 Yrotation Xrotation Zrotation
                      End Site
                      {
                        OFFSET 0.21091084272403915 -0.016756648201192714 0.1933767059105508
                      }
                    }
                  }
                }
              }
            }
          }
        }
        JOINT rightShoulder
        {
          OFFSET -0.37618174442811925 1.0539491987447769 0
          CHANNELS 3 Yrotation Xrotation Zrotation
          JOINT rightUpperArm
          {
            OFFSET -0.870284438 0 0
            CHANNELS 3 Yrotation Xrotation Zrotation
            JOINT rightLowerArm
            {
              OFFSET -2.1985273100003235 0 0
              CHANNELS 3 Yrotation Xrotation Zrotation
              JOINT rightHand
              {
                OFFSET -2.1468523139682802 0 0
                CHANNELS 3 Yrotation Xrotation Zrotation
                JOINT rightIndexProximal
                {
                  OFFSET -0.6585177834681599 0.07380250427007962 0.18382213159631788
                  CHANNELS 3 Yrotation Xrotation Zrotation
                  JOINT rightIndexIntermediate
                  {
                    OFFSET -0.3323021288626682 -0.009606893929485771 -0.012820872253340998
                    CHANNELS 3 Yrotation Xrotation Zrotation
                    JOINT rightIndexDistal
                    {
                      OFFSET -0.2045908926985518 -0.0071133989147997845 -0.006828784783599051
                      CHANNELS 3 Yrotation Xrotation Zrotation
                      End Site
                      {
                        OFFSET -0.2045908926985518 -0.0071133989147997845 -0.006828784783599051
                      }
                    }
                  }
                }
                JOINT rightLittleProximal
                {
                  OFFSET -0.6110054258835662 0.07380246363125398 -0.29175655876064077
                  CHANNELS 3 Yrotation Xrotation Zrotation
                  JOINT rightLittleIntermediate
                  {
                    OFFSET -0.3144281999999998 -2.5124724523095665e-9 1.8658118799974588e-7
                    CHANNELS 3 Yrotation Xrotation Zrotation
                    JOINT rightLittleDistal
                    {
                      OFFSET -0.18116185580251631 0.002815456192251098 0.0034826415518049436
                      CHANNELS 3 Yrotation Xrotation Zrotation
                      End Site
                      {
                        OFFSET -0.18116185580251631 0.002815456192251098 0.0034826415518049436
                      }
                    }
                  }
                }
                JOINT rightMiddleProximal
                {
                  OFFSET -0.6637478005691111 0.07380246480054087 0.02046981859247815
                  CHANNELS 3 Yrotation Xrotation Zrotation
                  JOINT rightMiddleIntermediate
                  {
                    OFFSET -0.3705733999999994 -2.9611069152224445e-9 9.35054791928458e-8
                    CHANNELS 3 Yrotation Xrotation Zrotation
                    JOINT rightMiddleDistal
                    {
                      OFFSET -0.22861063500000056 -1.82673876025774e-9 -1.6740782024515788e-7
                      CHANNELS 3 Yrotation Xrotation Zrotation
                      End Site
                      {
                        OFFSET -0.22861063500000056 -1.82673876025774e-9 -1.6740782024515788e-7
                      }
                    }
                  }
                }
                JOINT rightRingProximal
                {
                  OFFSET -0.6561845547265777 0.07380246406440083 -0.13588087571513918
                  CHANNELS 3 Yrotation Xrotation Zrotation
                  JOINT rightRingIntermediate
                  {
                    OFFSET -0.3437531000000005 -2.746796123886952e-9 1.4935781944558357e-7
                    CHANNELS 3 Yrotation Xrotation Zrotation
                    JOINT rightRingDistal
                    {
                      OFFSET -0.1983118991198174 -0.002467117924596085 -0.004538141969590015
                      CHANNELS 3 Yrotation Xrotation Zrotation
                      End Site
                      {
                        OFFSET -0.1983118991198174 -0.002467117924596085 -0.004538141969590015
                      }
                    }
                  }
                }
                JOINT rightThumbProximal
                {
                  OFFSET -0.09767004258864787 -0.14930060425447422 -0.07008212897521154
                  CHANNELS 3 Yrotation Xrotation Zrotation
                  JOINT rightThumbIntermediate
                  {
                    OFFSET -0.36682123028154767 -0.015768465060082004 0.28693641268151077
                    CHANNELS 3 Yrotation Xrotation Zrotation
                    JOINT rightThumbDistal
                    {
                      OFFSET -0.21091084272403915 -0.016756648201192714 0.1933767059105508
                      CHANNELS 3 Yrotation Xrotation Zrotation
                      End Site
                      {
                        OFFSET -0.21091084272403915 -0.016756648201192714 0.1933767059105508
                      }
                    }
                  }
                }
              }
            }
          }
        }
      }
    }
  }
  JOINT leftUpperLeg
  {
    OFFSET 0.7715603 -0.3993844658041501 0
    CHANNELS 3 Yrotation Xrotation Zrotation
    JOINT leftLowerLeg
    {
      OFFSET 0 -3.529830000249343 0
      CHANNELS 3 Yrotation Xrotation Zrotation
      JOINT leftFoot
      {
        OFFSET 0 -4.154939295409685 0.004208579085223096
        CHANNELS 3 Yrotation Xrotation Zrotation
        JOINT leftToes
        {
          OFFSET 0 -0.6353414391261847 1.10414981190622
          CHANNELS 3 Yrotation Xrotation Zrotation
          End Site
          {
            OFFSET 0 -0.6015820691747853 1.10414981190622
          }
        }
      }
    }
  }
  JOINT rightUpperLeg
  {
    OFFSET -0.7715603 -0.3993844658041501 0
    CHANNELS 3 Yrotation Xrotation Zrotation
    JOINT rightLowerLeg
    {
      OFFSET 0 -3.529830000249343 0
      CHANNELS 3 Yrotation Xrotation Zrotation
      JOINT rightFoot
      {
        OFFSET 0 -4.154939295409685 0.004208579085223096
        CHANNELS 3 Yrotation Xrotation Zrotation
        JOINT rightToes
        {
          OFFSET 0 -0.6353414391261847 1.10414981190622
          CHANNELS 3 Yrotation Xrotation Zrotation
          End Site
          {
            OFFSET 0 -0.6015820691747853 1.10414981190622
          }
        }
      }
    }
  }
}
MOTION
Frames: 4
Frame Time: 0.03333333333333333
-0.00973273915323344 8.753974220969459 1.352374942173057 -2.3516120882220837 -2.516071005440566 0.3283233907491913 -0.16209950566937906 -0.15524632103159472 -1.7463281112980387 -2.1801182402045076 2.411082099244878 -0.9282048540042918 0 0 0 -0.020265842283209635 -11.165238019031491 1.4318812138115755 1.992501981272855 -6.181428782587632 4.2417996194026575 0 0 0 0 0 0 8.237308863464516 0.4227630105211131 -11.170725964760393 -51.57713747178958 -19.822953000243597 -59.66420810827919 -89.70050499206774 -0.000053564675455161574 0.00006606924938390363 -10.313168752629617 9.177241869380094 30.81430725445113 -0.005100139008740847 -0.0000016944226445545976 0.00010850061148976729 0.012011669549495584 0.00001661802835030431 -0.00003169862643868286 -0.00760171868961637 -0.000013168571968519033 -0.000002619823807121245 4.288550549964442 -0.020121249123136634 0.5091104513162534 -4.078355396200019 -0.016131407926227304 -0.5097964387272527 -0.007700832303276749 -0.000010131084234403923 -0.0000037368067241477816 -0.0055240276152992655 -0.0000031688467797922393 0.015989586776773094 0.0043338375626772434 0.000006118737457981051 -0.01601140803015097 0.0024071641430680043 -0.000003061125412952187 -0.000006393631017989283 0.0006998611967111424 -0.0000017010267991840635 0.00010850044213159161 0.000011669454108511985 0.000016576348326203413 -0.00003170044378218341 -0.000001719063241338331 -0.000013139225779250731 -0.0000026201269012601697 3.8218798915443633 0.3390811978071517 -2.1634392992713636 6.484672590465115 -7.3041122218922565 12.649575560246106 1.1446225503610838 -6.313851394868918 8.1397669542778 -1.3653124560697738 0.7701332619494718 10.973715731883477 38.14659009855434 -22.241847018246155 58.20774878768917 88.26391969354403 0.000015726652303720047 -0.000007336125550080478 22.940983170838237 -10.236958033198617 -14.662402385968084 0.9290573120768228 0.06204350287456239 -7.799396191998457 0.029295539398260188 4.5418208895774234e-7 0.00002943720626017553 -0.010103048629401607 0.000005176542966696269 0.000010061303780692205 1.0067289908936172 0.0726820101224856 -7.799904689969218 0.09699986470991752 6.975851551759043e-7 0.00002945252991818644 -0.056897145070701156 -0.000007246753286642159 0.000010513334593352266 0.8907150990865377 0.05679522004482111 -7.799435948171451 0.09739404075973424 0.000008884573864085698 0.000023478855065673368 -0.036906338370794475 -0.000003634508279372945 0.000011416092649252857 0.9654180192585241 0.06702160670089183 -7.799455565363722 -0.02540445975962866 4.271647272716445e-7 0.000029436414836393034 -0.012907420635565004 -3.017446677400585e-7 0.000014142037876987055 -13.65803195783495 -20.574279922288536 -17.393103810722142 -7.6608307120206245 4.185632912572915 -0.6224733586430253 0.8833882772454176 -1.5599264893120657 -1.9501850224618793 8.880197755136152 -7.436771455381589 3.4854102055848593 10.858223808384226 23.066277154351962 7.02889438048675 8.172330453325214 -11.467617308489599 -10.012415390091315 0.000006221239865366472 -0.00006122081793418657 -0.0000025613421085267395 -8.298528585549336 -6.688781658043045 -7.290256286432712 -9.992046378655887 19.57252939054658 -8.105613328929838 -2.546894182517692 -9.028696951931897 13.232665710234158 -0.000006291235680796624 -0.00001896054503985848 0.0000025613060792033083
-0.005133885636248372 8.753819899125531 1.3505971117240394 -2.221095790255383 -2.5055603528064814 0.3963225050233669 -0.18953866821743742 -0.2274446160526846 -1.878055441827247 -2.3706269808513576 2.307520133845198 -1.4219171145269034 0 0 0 -0.17193106111031403 -10.848630336465426 1.7779473526201568 1.7704762036914452 -6.096702754991416 4.256411786617763 0 0 0 0 0 0 7.793672021986098 0.43453023500032517 -10.916950130066546 -48.35544950195426 -20.61155726950526 -59.89741257668012 -89.56339559801427 -0.00006500517196615841 0.00007496132874635757 -8.298780174114997 13.839934138563898 26.47974888860681 -0.005100139008740847 -0.0000016944226445545976 0.00010850061148976729 0.012011669549495584 0.00001661802835030431 -0.00003169862643868286 -0.00760171868961637 -0.000013168571968519033 -0.000002619823807121245 4.288550549964442 -0.020121249123136634 0.5091104513162534 -4.078355396200019 -0.016131407926227304 -0.5097964387272527 -0.007700832303276749 -0.000010131084234403923 -0.0000037368067241477816 -0.0055240276152992655 -0.0000031688467797922393 0.015989586776773094 0.0043338375626772434 0.000006118737457981051 -0.01601140803015097 0.0024071641430680043 -0.000003061125412952187 -0.000006393631017989283 0.0006998611967111424 -0.0000017010267991840635 0.00010850044213159161 0.000011669454108511985 0.000016576348326203413 -0.00003170044378218341 -0.000001719063241338331 -0.000013139225779250731 -0.0000026201269012601697 3.8218798915443633 0.3390811978071517 -2.1634392992713636 6.484672590465115 -7.3041122218922565 12.64957640011191 1.1446225503610838 -6.313851394868918 8.1397669542778 -1.258507429687671 0.7984154562407032 11.265026887037719 32.299538471328304 -23.257649899193925 59.86480091249019 88.4840364900237 -7.402661634461486e-7 3.341720002727011e-7 23.97773403224385 -10.43048965591023 -11.665248460719084 0.9290573120768228 0.06204350287456239 -7.799396191998457 0.029295542733313022 4.5418208895774234e-7 0.00002943720626017553 -0.010103048629401607 0.000005176542966696269 0.000010061303780692205 1.0067289908936172 0.0726820101224856 -7.799904689969218 0.09699986470991752 6.975851551759043e-7 0.00002945252991818644 -0.056897145070701156 -0.000007246753286642159 0.000010513334593352266 0.8907150990865377 0.05679522004482111 -7.799435948171451 0.09739404075973424 0.000008884573864085698 0.000023478855065673368 -0.036906338370794475 -0.000003634508279372945 0.000011416092649252857 0.9654180192585241 0.06702160670089183 -7.799455565363722 -0.02540445975962866 4.271647272716445e-7 0.000029436414836393034 -0.012907420635565004 -3.017446677400585e-7 0.000014142037876987055 -13.65803195783495 -20.574279922288536 -17.393103810722142 -7.6608307120206245 4.185632912572915 -0.6224733586430253 0.8833882772454176 -1.5599264893120657 -1.9501850224618793 8.831880054866861 -7.449736829776141 3.4034333360889035 10.856349461375856 23.04953033593808 7.009204633464209 8.063175552825953 -11.462069787395833 -9.956687615769203 0.000006221239865366472 -0.00006122081793418657 -0.0000025613421085267395 -8.357091254473929 -6.726528380071741 -7.388643390040062 -9.992544447648402 19.60226593716149 -8.110977463554468 -2.6259780462781523 -9.017634310495836 13.275662483278603 -0.000006291235680796624 -0.00001896054503985848 0.0000025613060792033083
-0.002716965338384563 8.754481402310457 1.3476119079160351 -2.1431495910644576 -2.4795449481794516 0.4348065837271541 -0.2257492341732289 -0.3122015944828631 -1.9969739693651096 -2.593284999911632 2.1107129862515617 -1.790567605583003 0 0 0 -0.27460750138026047 -10.566036158138365 1.9558473600645436 1.5300709858823744 -5.7286262083460935 4.3216389869385035 0 0 0 0 0 0 7.492566838338615 0.44135029807292486 -10.69913212373055 -43.47170480814412 -22.222509191806527 -61.51272688299225 -89.09040391710133 -0.00006726550434407796 0.00008500605333869774 -5.945116033732177 15.909681941681635 25.01501997875135 -0.005100139008740847 -0.0000016944226445545976 0.00010850061148976729 0.012011669549495584 0.00001661802835030431 -0.00003169862643868286 -0.00760171868961637 -0.000013168571968519033 -0.000002619823807121245 4.288550549964442 -0.020121249123136634 0.5091104513162534 -4.078355396200019 -0.016131407926227304 -0.5097964387272527 -0.007700832303276749 -0.000010131084234403923 -0.0000037368067241477816 -0.0055240276152992655 -0.0000031688467797922393 0.015989586776773094 0.0043338375626772434 0.000006118737457981051 -0.01601140803015097 0.0024071641430680043 -0.000003061125412952187 -0.000006393631017989283 0.0006998611967111424 -0.0000017010267991840635 0.00010850044213159161 0.000011669454108511985 0.000016576348326203413 -0.00003170044378218341 -0.000001719063241338331 -0.000013139225779250731 -0.0000026201269012601697 3.8218798915443633 0.3390811978071517 -2.1634392992713636 6.484672590465115 -7.3041122218922565 12.64957640011191 1.1446225503610838 -6.313851394868918 8.1397669542778 -1.0820209579720022 0.8297435738831499 11.536879626386312 24.660240216057105 -24.9700625227759 62.59937434623334 88.2044483817339 -3.969780573454368e-7 -0.00002925731205183701 25.771081487408217 -14.017546451026599 -8.517958951452352 0.9290573120768228 0.06204350287456239 -7.799396191998457 0.029295542733313022 4.5418208895774234e-7 0.00002943720626017553 -0.010103048629401607 0.000005176542966696269 0.000010061303780692205 1.0067289908936172 0.0726820101224856 -7.799904689969218 0.09699986470991752 6.975851551759043e-7 0.00002945252991818644 -0.056897145070701156 -0.000007246753286642159 0.000010513334593352266 0.8907150990865377 0.05679522004482111 -7.799435948171451 0.09739404075973424 0.000008884573864085698 0.000023478855065673368 -0.036906338370794475 -0.000003634508279372945 0.000011416092649252857 0.9654180192585241 0.06702160670089183 -7.799455565363722 -0.02540445975962866 4.271647272716445e-7 0.000029436414836393034 -0.012907420635565004 -3.017446677400585e-7 0.000014142037876987055 -13.65803195783495 -20.574279922288536 -17.393103810722142 -7.6608307120206245 4.185632912572915 -0.6224733586430253 0.8833882772454176 -1.5599264893120657 -1.9501850224618793 8.827033049395244 -7.46037340720907 3.3788836585448183 10.849874854864444 22.98763305270755 6.979254030292026 7.961666491732662 -11.423564208429097 -9.921722526549216 0.000006221239865366472 -0.00006122081793418657 -0.0000025613421085267395 -8.373912921354453 -6.760887160424021 -7.44922497403571 -9.98167561430412 19.586991899696052 -8.076377417650205 -2.6742677243698414 -8.983776796426751 13.274353243605196 -0.000006291235680796624 -0.00001896054503985848 0.0000025613060792033083
-0.0017910444347018543 8.75537265430797 1.3437030894977058 -2.161281163007747 -2.4385435583525825 0.4420337453410828 -0.24617765489174231 -0.3917708041239899 -2.0672678606214894 -2.7358780650085537 1.8934051626127517 -1.949213733171632 0 0 0 -0.32183483705136656 -10.36942345759058 1.9584200390502244 1.2961795631486792 -5.341388543489163 4.295993152516515 0 0 0 0 0 0 7.485559803306704 0.43965878908583106 -10.670026976451636 -38.54802510859745 -23.807487244219498 -64.01969332871491 -88.80717015092033 -0.000047053000160277795 0.00006040060326178926 -4.726091644070719 15.288517655626 24.681233644752915 -0.005100139008740847 -0.0000016944226445545976 0.00010850061148976729 0.012011669549495584 0.00001661802835030431 -0.00003169862643868286 -0.00760171868961637 -0.000013168571968519033 -0.000002619823807121245 4.288550549964442 -0.020121249123136634 0.5091104513162534 -4.078355396200019 -0.016131407926227304 -0.5097964387272527 -0.007700832303276749 -0.000010131084234403923 -0.0000037368067241477816 -0.0055240276152992655 -0.0000031688467797922393 0.015989586776773094 0.0043338375626772434 0.000006118737457981051 -0.01601140803015097 0.0024071641430680043 -0.000003061125412952187 -0.000006393631017989283 0.0006998611967111424 -0.0000017010267991840635 0.00010850044213159161 0.000011669454108511985 0.000016576348326203413 -0.00003170044378218341 -0.000001719063241338331 -0.000013139225779250731 -0.0000026201269012601697 3.8218798915443633 0.3390811978071517 -2.1634392992713636 6.484672590465115 -7.3041122218922565 12.64957640011191 1.1446225503610838 -6.313851394868918 8.1397669542778 -0.8973049754828617 0.8590341258645203 11.768778085489405 17.718205676672234 -26.76067142576886 65.94609348669839 87.70382349298514 0.000008027962654169482 -0.000010247376305555046 27.092597136696025 -17.57186117394412 -7.814497237443805 0.9290573120768228 0.06204350287456239 -7.799396191998457 0.029295542733313022 4.5418208895774234e-7 0.00002943720626017553 -0.010103048629401607 0.000005176542966696269 0.000010061303780692205 1.0067289908936172 0.0726820101224856 -7.799904689969218 0.09699986470991752 6.975851551759043e-7 0.00002945252991818644 -0.056897145070701156 -0.000007246753286642159 0.000010513334593352266 0.8907150990865377 0.05679522004482111 -7.799435948171451 0.09739404075973424 0.000008884573864085698 0.000023478855065673368 -0.036906338370794475 -0.000003634508279372945 0.000011416092649252857 0.9654180192585241 0.06702160670089183 -7.799455565363722 -0.02540445975962866 4.271647272716445e-7 0.000029436414836393034 -0.012907420635565004 -3.017446677400585e-7 0.000014142037876987055 -13.65803195783495 -20.574279922288536 -17.393103810722142 -7.6608307120206245 4.185632912572915 -0.6224733586430253 0.8833882772454176 -1.5599264893120657 -1.9501850224618793 8.786142582211534 -7.4713357329347865 3.3463279985502274 10.846926422649966 22.90526791994478 7.022558567048169 7.9003576459907165 -11.37925755428239 -9.935652328930017 0.000006221239865366472 -0.00006122081793418657 -0.0000025613421085267395 -8.36205623823115 -6.813393801671815 -7.45170523493457 -9.976220479084764 19.5372231205156 -8.069633061130824 -2.6385496757335276 -8.9302066419966 13.261274732879004 -0.000006291235680796624 -0.00001896054503985848 0.0000025613060792033083
